<?xml version="1.0" encoding="UTF-8" ?>
<svg version="1.1" width="112" height="8" xmlns="http://www.w3.org/2000/svg" shape-rendering="crispEdges">
<rect x="0" y="0" width="1" height="1" fill="#6ABE30" />
<rect x="1" y="0" width="1" height="1" fill="#6ABE30" />
<rect x="2" y="0" width="1" height="1" fill="#6ABE30" />
<rect x="3" y="0" width="1" height="1" fill="#6ABE30" />
<rect x="4" y="0" width="1" height="1" fill="#6ABE30" />
<rect x="5" y="0" width="1" height="1" fill="#6ABE30" />
<rect x="6" y="0" width="1" height="1" fill="#6ABE30" />
<rect x="7" y="0" width="1" height="1" fill="#6ABE30" />
<rect x="13" y="0" width="1" height="1" fill="#FF0000" />
<rect x="14" y="0" width="1" height="1" fill="#FF0000" />
<rect x="15" y="0" width="1" height="1" fill="#FF0000" />
<rect x="16" y="0" width="1" height="1" fill="#FF0000" />
<rect x="17" y="0" width="1" height="1" fill="#FF0000" />
<rect x="18" y="0" width="1" height="1" fill="#FF0000" />
<rect x="19" y="0" width="1" height="1" fill="#FF0000" />
<rect x="20" y="0" width="1" height="1" fill="#FF0000" />
<rect x="26" y="0" width="1" height="1" fill="#5FCDE4" />
<rect x="27" y="0" width="1" height="1" fill="#5FCDE4" />
<rect x="28" y="0" width="1" height="1" fill="#5FCDE4" />
<rect x="29" y="0" width="1" height="1" fill="#5FCDE4" />
<rect x="30" y="0" width="1" height="1" fill="#5FCDE4" />
<rect x="31" y="0" width="1" height="1" fill="#5FCDE4" />
<rect x="32" y="0" width="1" height="1" fill="#5FCDE4" />
<rect x="33" y="0" width="1" height="1" fill="#5FCDE4" />
<rect x="46" y="0" width="1" height="1" fill="#6ABE30" />
<rect x="52" y="0" width="1" height="1" fill="#6ABE30" />
<rect x="65" y="0" width="1" height="1" fill="#FF0000" />
<rect x="66" y="0" width="1" height="1" fill="#6ABE30" />
<rect x="67" y="0" width="1" height="1" fill="#6ABE30" />
<rect x="68" y="0" width="1" height="1" fill="#6ABE30" />
<rect x="69" y="0" width="1" height="1" fill="#6ABE30" />
<rect x="70" y="0" width="1" height="1" fill="#6ABE30" />
<rect x="71" y="0" width="1" height="1" fill="#6ABE30" />
<rect x="72" y="0" width="1" height="1" fill="#6ABE30" />
<rect x="78" y="0" width="1" height="1" fill="#6ABE30" />
<rect x="79" y="0" width="1" height="1" fill="#6ABE30" />
<rect x="80" y="0" width="1" height="1" fill="#6ABE30" />
<rect x="81" y="0" width="1" height="1" fill="#6ABE30" />
<rect x="82" y="0" width="1" height="1" fill="#6ABE30" />
<rect x="83" y="0" width="1" height="1" fill="#6ABE30" />
<rect x="84" y="0" width="1" height="1" fill="#6ABE30" />
<rect x="85" y="0" width="1" height="1" fill="#FF0000" />
<rect x="91" y="0" width="1" height="1" fill="#5FCDE4" />
<rect x="92" y="0" width="1" height="1" fill="#5FCDE4" />
<rect x="93" y="0" width="1" height="1" fill="#5FCDE4" />
<rect x="94" y="0" width="1" height="1" fill="#5FCDE4" />
<rect x="95" y="0" width="1" height="1" fill="#5FCDE4" />
<rect x="96" y="0" width="1" height="1" fill="#5FCDE4" />
<rect x="97" y="0" width="1" height="1" fill="#5FCDE4" />
<rect x="98" y="0" width="1" height="1" fill="#FF0000" />
<rect x="104" y="0" width="1" height="1" fill="#FF0000" />
<rect x="105" y="0" width="1" height="1" fill="#5FCDE4" />
<rect x="106" y="0" width="1" height="1" fill="#5FCDE4" />
<rect x="107" y="0" width="1" height="1" fill="#5FCDE4" />
<rect x="108" y="0" width="1" height="1" fill="#5FCDE4" />
<rect x="109" y="0" width="1" height="1" fill="#5FCDE4" />
<rect x="110" y="0" width="1" height="1" fill="#5FCDE4" />
<rect x="111" y="0" width="1" height="1" fill="#5FCDE4" />
<rect x="0" y="1" width="1" height="1" fill="#6ABE30" />
<rect x="1" y="1" width="1" height="1" fill="#6ABE30" />
<rect x="2" y="1" width="1" height="1" fill="#6ABE30" />
<rect x="3" y="1" width="1" height="1" fill="#6ABE30" />
<rect x="4" y="1" width="1" height="1" fill="#6ABE30" />
<rect x="5" y="1" width="1" height="1" fill="#6ABE30" />
<rect x="6" y="1" width="1" height="1" fill="#6ABE30" />
<rect x="7" y="1" width="1" height="1" fill="#6ABE30" />
<rect x="13" y="1" width="1" height="1" fill="#FF0000" />
<rect x="14" y="1" width="1" height="1" fill="#FF0000" />
<rect x="15" y="1" width="1" height="1" fill="#FF0000" />
<rect x="16" y="1" width="1" height="1" fill="#FF0000" />
<rect x="17" y="1" width="1" height="1" fill="#FF0000" />
<rect x="18" y="1" width="1" height="1" fill="#FF0000" />
<rect x="19" y="1" width="1" height="1" fill="#FF0000" />
<rect x="20" y="1" width="1" height="1" fill="#FF0000" />
<rect x="26" y="1" width="1" height="1" fill="#5FCDE4" />
<rect x="27" y="1" width="1" height="1" fill="#5FCDE4" />
<rect x="28" y="1" width="1" height="1" fill="#5FCDE4" />
<rect x="29" y="1" width="1" height="1" fill="#5FCDE4" />
<rect x="30" y="1" width="1" height="1" fill="#5FCDE4" />
<rect x="31" y="1" width="1" height="1" fill="#5FCDE4" />
<rect x="32" y="1" width="1" height="1" fill="#5FCDE4" />
<rect x="33" y="1" width="1" height="1" fill="#5FCDE4" />
<rect x="45" y="1" width="1" height="1" fill="#6ABE30" />
<rect x="46" y="1" width="1" height="1" fill="#6ABE30" />
<rect x="52" y="1" width="1" height="1" fill="#6ABE30" />
<rect x="53" y="1" width="1" height="1" fill="#6ABE30" />
<rect x="65" y="1" width="1" height="1" fill="#FF0000" />
<rect x="66" y="1" width="1" height="1" fill="#FF0000" />
<rect x="67" y="1" width="1" height="1" fill="#6ABE30" />
<rect x="68" y="1" width="1" height="1" fill="#6ABE30" />
<rect x="69" y="1" width="1" height="1" fill="#6ABE30" />
<rect x="70" y="1" width="1" height="1" fill="#6ABE30" />
<rect x="71" y="1" width="1" height="1" fill="#6ABE30" />
<rect x="72" y="1" width="1" height="1" fill="#6ABE30" />
<rect x="78" y="1" width="1" height="1" fill="#6ABE30" />
<rect x="79" y="1" width="1" height="1" fill="#6ABE30" />
<rect x="80" y="1" width="1" height="1" fill="#6ABE30" />
<rect x="81" y="1" width="1" height="1" fill="#6ABE30" />
<rect x="82" y="1" width="1" height="1" fill="#6ABE30" />
<rect x="83" y="1" width="1" height="1" fill="#6ABE30" />
<rect x="84" y="1" width="1" height="1" fill="#FF0000" />
<rect x="85" y="1" width="1" height="1" fill="#FF0000" />
<rect x="91" y="1" width="1" height="1" fill="#5FCDE4" />
<rect x="92" y="1" width="1" height="1" fill="#5FCDE4" />
<rect x="93" y="1" width="1" height="1" fill="#5FCDE4" />
<rect x="94" y="1" width="1" height="1" fill="#5FCDE4" />
<rect x="95" y="1" width="1" height="1" fill="#5FCDE4" />
<rect x="96" y="1" width="1" height="1" fill="#5FCDE4" />
<rect x="97" y="1" width="1" height="1" fill="#FF0000" />
<rect x="98" y="1" width="1" height="1" fill="#FF0000" />
<rect x="104" y="1" width="1" height="1" fill="#FF0000" />
<rect x="105" y="1" width="1" height="1" fill="#FF0000" />
<rect x="106" y="1" width="1" height="1" fill="#5FCDE4" />
<rect x="107" y="1" width="1" height="1" fill="#5FCDE4" />
<rect x="108" y="1" width="1" height="1" fill="#5FCDE4" />
<rect x="109" y="1" width="1" height="1" fill="#5FCDE4" />
<rect x="110" y="1" width="1" height="1" fill="#5FCDE4" />
<rect x="111" y="1" width="1" height="1" fill="#5FCDE4" />
<rect x="0" y="2" width="1" height="1" fill="#6ABE30" />
<rect x="1" y="2" width="1" height="1" fill="#6ABE30" />
<rect x="2" y="2" width="1" height="1" fill="#6ABE30" />
<rect x="3" y="2" width="1" height="1" fill="#6ABE30" />
<rect x="4" y="2" width="1" height="1" fill="#6ABE30" />
<rect x="5" y="2" width="1" height="1" fill="#6ABE30" />
<rect x="6" y="2" width="1" height="1" fill="#6ABE30" />
<rect x="7" y="2" width="1" height="1" fill="#6ABE30" />
<rect x="13" y="2" width="1" height="1" fill="#FF0000" />
<rect x="14" y="2" width="1" height="1" fill="#FF0000" />
<rect x="15" y="2" width="1" height="1" fill="#FF0000" />
<rect x="16" y="2" width="1" height="1" fill="#FF0000" />
<rect x="17" y="2" width="1" height="1" fill="#FF0000" />
<rect x="18" y="2" width="1" height="1" fill="#FF0000" />
<rect x="19" y="2" width="1" height="1" fill="#FF0000" />
<rect x="20" y="2" width="1" height="1" fill="#FF0000" />
<rect x="26" y="2" width="1" height="1" fill="#5FCDE4" />
<rect x="27" y="2" width="1" height="1" fill="#5FCDE4" />
<rect x="28" y="2" width="1" height="1" fill="#5FCDE4" />
<rect x="29" y="2" width="1" height="1" fill="#5FCDE4" />
<rect x="30" y="2" width="1" height="1" fill="#5FCDE4" />
<rect x="31" y="2" width="1" height="1" fill="#5FCDE4" />
<rect x="32" y="2" width="1" height="1" fill="#5FCDE4" />
<rect x="33" y="2" width="1" height="1" fill="#5FCDE4" />
<rect x="44" y="2" width="1" height="1" fill="#6ABE30" />
<rect x="45" y="2" width="1" height="1" fill="#6ABE30" />
<rect x="46" y="2" width="1" height="1" fill="#6ABE30" />
<rect x="52" y="2" width="1" height="1" fill="#6ABE30" />
<rect x="53" y="2" width="1" height="1" fill="#6ABE30" />
<rect x="54" y="2" width="1" height="1" fill="#6ABE30" />
<rect x="65" y="2" width="1" height="1" fill="#FF0000" />
<rect x="66" y="2" width="1" height="1" fill="#FF0000" />
<rect x="67" y="2" width="1" height="1" fill="#FF0000" />
<rect x="68" y="2" width="1" height="1" fill="#6ABE30" />
<rect x="69" y="2" width="1" height="1" fill="#6ABE30" />
<rect x="70" y="2" width="1" height="1" fill="#6ABE30" />
<rect x="71" y="2" width="1" height="1" fill="#6ABE30" />
<rect x="72" y="2" width="1" height="1" fill="#6ABE30" />
<rect x="78" y="2" width="1" height="1" fill="#6ABE30" />
<rect x="79" y="2" width="1" height="1" fill="#6ABE30" />
<rect x="80" y="2" width="1" height="1" fill="#6ABE30" />
<rect x="81" y="2" width="1" height="1" fill="#6ABE30" />
<rect x="82" y="2" width="1" height="1" fill="#6ABE30" />
<rect x="83" y="2" width="1" height="1" fill="#FF0000" />
<rect x="84" y="2" width="1" height="1" fill="#FF0000" />
<rect x="85" y="2" width="1" height="1" fill="#FF0000" />
<rect x="91" y="2" width="1" height="1" fill="#5FCDE4" />
<rect x="92" y="2" width="1" height="1" fill="#5FCDE4" />
<rect x="93" y="2" width="1" height="1" fill="#5FCDE4" />
<rect x="94" y="2" width="1" height="1" fill="#5FCDE4" />
<rect x="95" y="2" width="1" height="1" fill="#5FCDE4" />
<rect x="96" y="2" width="1" height="1" fill="#FF0000" />
<rect x="97" y="2" width="1" height="1" fill="#FF0000" />
<rect x="98" y="2" width="1" height="1" fill="#FF0000" />
<rect x="104" y="2" width="1" height="1" fill="#FF0000" />
<rect x="105" y="2" width="1" height="1" fill="#FF0000" />
<rect x="106" y="2" width="1" height="1" fill="#FF0000" />
<rect x="107" y="2" width="1" height="1" fill="#5FCDE4" />
<rect x="108" y="2" width="1" height="1" fill="#5FCDE4" />
<rect x="109" y="2" width="1" height="1" fill="#5FCDE4" />
<rect x="110" y="2" width="1" height="1" fill="#5FCDE4" />
<rect x="111" y="2" width="1" height="1" fill="#5FCDE4" />
<rect x="0" y="3" width="1" height="1" fill="#6ABE30" />
<rect x="1" y="3" width="1" height="1" fill="#6ABE30" />
<rect x="2" y="3" width="1" height="1" fill="#6ABE30" />
<rect x="3" y="3" width="1" height="1" fill="#6ABE30" />
<rect x="4" y="3" width="1" height="1" fill="#6ABE30" />
<rect x="5" y="3" width="1" height="1" fill="#6ABE30" />
<rect x="6" y="3" width="1" height="1" fill="#6ABE30" />
<rect x="7" y="3" width="1" height="1" fill="#6ABE30" />
<rect x="13" y="3" width="1" height="1" fill="#FF0000" />
<rect x="14" y="3" width="1" height="1" fill="#FF0000" />
<rect x="15" y="3" width="1" height="1" fill="#FF0000" />
<rect x="16" y="3" width="1" height="1" fill="#FF0000" />
<rect x="17" y="3" width="1" height="1" fill="#FF0000" />
<rect x="18" y="3" width="1" height="1" fill="#FF0000" />
<rect x="19" y="3" width="1" height="1" fill="#FF0000" />
<rect x="20" y="3" width="1" height="1" fill="#FF0000" />
<rect x="26" y="3" width="1" height="1" fill="#5FCDE4" />
<rect x="27" y="3" width="1" height="1" fill="#5FCDE4" />
<rect x="28" y="3" width="1" height="1" fill="#5FCDE4" />
<rect x="29" y="3" width="1" height="1" fill="#5FCDE4" />
<rect x="30" y="3" width="1" height="1" fill="#5FCDE4" />
<rect x="31" y="3" width="1" height="1" fill="#5FCDE4" />
<rect x="32" y="3" width="1" height="1" fill="#5FCDE4" />
<rect x="33" y="3" width="1" height="1" fill="#5FCDE4" />
<rect x="43" y="3" width="1" height="1" fill="#6ABE30" />
<rect x="44" y="3" width="1" height="1" fill="#6ABE30" />
<rect x="45" y="3" width="1" height="1" fill="#6ABE30" />
<rect x="46" y="3" width="1" height="1" fill="#6ABE30" />
<rect x="52" y="3" width="1" height="1" fill="#6ABE30" />
<rect x="53" y="3" width="1" height="1" fill="#6ABE30" />
<rect x="54" y="3" width="1" height="1" fill="#6ABE30" />
<rect x="55" y="3" width="1" height="1" fill="#6ABE30" />
<rect x="65" y="3" width="1" height="1" fill="#FF0000" />
<rect x="66" y="3" width="1" height="1" fill="#FF0000" />
<rect x="67" y="3" width="1" height="1" fill="#FF0000" />
<rect x="68" y="3" width="1" height="1" fill="#FF0000" />
<rect x="69" y="3" width="1" height="1" fill="#6ABE30" />
<rect x="70" y="3" width="1" height="1" fill="#6ABE30" />
<rect x="71" y="3" width="1" height="1" fill="#6ABE30" />
<rect x="72" y="3" width="1" height="1" fill="#6ABE30" />
<rect x="78" y="3" width="1" height="1" fill="#6ABE30" />
<rect x="79" y="3" width="1" height="1" fill="#6ABE30" />
<rect x="80" y="3" width="1" height="1" fill="#6ABE30" />
<rect x="81" y="3" width="1" height="1" fill="#6ABE30" />
<rect x="82" y="3" width="1" height="1" fill="#FF0000" />
<rect x="83" y="3" width="1" height="1" fill="#FF0000" />
<rect x="84" y="3" width="1" height="1" fill="#FF0000" />
<rect x="85" y="3" width="1" height="1" fill="#FF0000" />
<rect x="91" y="3" width="1" height="1" fill="#5FCDE4" />
<rect x="92" y="3" width="1" height="1" fill="#5FCDE4" />
<rect x="93" y="3" width="1" height="1" fill="#5FCDE4" />
<rect x="94" y="3" width="1" height="1" fill="#5FCDE4" />
<rect x="95" y="3" width="1" height="1" fill="#FF0000" />
<rect x="96" y="3" width="1" height="1" fill="#FF0000" />
<rect x="97" y="3" width="1" height="1" fill="#FF0000" />
<rect x="98" y="3" width="1" height="1" fill="#FF0000" />
<rect x="104" y="3" width="1" height="1" fill="#FF0000" />
<rect x="105" y="3" width="1" height="1" fill="#FF0000" />
<rect x="106" y="3" width="1" height="1" fill="#FF0000" />
<rect x="107" y="3" width="1" height="1" fill="#FF0000" />
<rect x="108" y="3" width="1" height="1" fill="#5FCDE4" />
<rect x="109" y="3" width="1" height="1" fill="#5FCDE4" />
<rect x="110" y="3" width="1" height="1" fill="#5FCDE4" />
<rect x="111" y="3" width="1" height="1" fill="#5FCDE4" />
<rect x="0" y="4" width="1" height="1" fill="#6ABE30" />
<rect x="1" y="4" width="1" height="1" fill="#6ABE30" />
<rect x="2" y="4" width="1" height="1" fill="#6ABE30" />
<rect x="3" y="4" width="1" height="1" fill="#6ABE30" />
<rect x="4" y="4" width="1" height="1" fill="#6ABE30" />
<rect x="5" y="4" width="1" height="1" fill="#6ABE30" />
<rect x="6" y="4" width="1" height="1" fill="#6ABE30" />
<rect x="7" y="4" width="1" height="1" fill="#6ABE30" />
<rect x="13" y="4" width="1" height="1" fill="#FF0000" />
<rect x="14" y="4" width="1" height="1" fill="#FF0000" />
<rect x="15" y="4" width="1" height="1" fill="#FF0000" />
<rect x="16" y="4" width="1" height="1" fill="#FF0000" />
<rect x="17" y="4" width="1" height="1" fill="#FF0000" />
<rect x="18" y="4" width="1" height="1" fill="#FF0000" />
<rect x="19" y="4" width="1" height="1" fill="#FF0000" />
<rect x="20" y="4" width="1" height="1" fill="#FF0000" />
<rect x="26" y="4" width="1" height="1" fill="#5FCDE4" />
<rect x="27" y="4" width="1" height="1" fill="#5FCDE4" />
<rect x="28" y="4" width="1" height="1" fill="#5FCDE4" />
<rect x="29" y="4" width="1" height="1" fill="#5FCDE4" />
<rect x="30" y="4" width="1" height="1" fill="#5FCDE4" />
<rect x="31" y="4" width="1" height="1" fill="#5FCDE4" />
<rect x="32" y="4" width="1" height="1" fill="#5FCDE4" />
<rect x="33" y="4" width="1" height="1" fill="#5FCDE4" />
<rect x="42" y="4" width="1" height="1" fill="#6ABE30" />
<rect x="43" y="4" width="1" height="1" fill="#6ABE30" />
<rect x="44" y="4" width="1" height="1" fill="#6ABE30" />
<rect x="45" y="4" width="1" height="1" fill="#6ABE30" />
<rect x="46" y="4" width="1" height="1" fill="#6ABE30" />
<rect x="52" y="4" width="1" height="1" fill="#6ABE30" />
<rect x="53" y="4" width="1" height="1" fill="#6ABE30" />
<rect x="54" y="4" width="1" height="1" fill="#6ABE30" />
<rect x="55" y="4" width="1" height="1" fill="#6ABE30" />
<rect x="56" y="4" width="1" height="1" fill="#6ABE30" />
<rect x="65" y="4" width="1" height="1" fill="#FF0000" />
<rect x="66" y="4" width="1" height="1" fill="#FF0000" />
<rect x="67" y="4" width="1" height="1" fill="#FF0000" />
<rect x="68" y="4" width="1" height="1" fill="#FF0000" />
<rect x="69" y="4" width="1" height="1" fill="#FF0000" />
<rect x="70" y="4" width="1" height="1" fill="#6ABE30" />
<rect x="71" y="4" width="1" height="1" fill="#6ABE30" />
<rect x="72" y="4" width="1" height="1" fill="#6ABE30" />
<rect x="78" y="4" width="1" height="1" fill="#6ABE30" />
<rect x="79" y="4" width="1" height="1" fill="#6ABE30" />
<rect x="80" y="4" width="1" height="1" fill="#6ABE30" />
<rect x="81" y="4" width="1" height="1" fill="#FF0000" />
<rect x="82" y="4" width="1" height="1" fill="#FF0000" />
<rect x="83" y="4" width="1" height="1" fill="#FF0000" />
<rect x="84" y="4" width="1" height="1" fill="#FF0000" />
<rect x="85" y="4" width="1" height="1" fill="#FF0000" />
<rect x="91" y="4" width="1" height="1" fill="#5FCDE4" />
<rect x="92" y="4" width="1" height="1" fill="#5FCDE4" />
<rect x="93" y="4" width="1" height="1" fill="#5FCDE4" />
<rect x="94" y="4" width="1" height="1" fill="#FF0000" />
<rect x="95" y="4" width="1" height="1" fill="#FF0000" />
<rect x="96" y="4" width="1" height="1" fill="#FF0000" />
<rect x="97" y="4" width="1" height="1" fill="#FF0000" />
<rect x="98" y="4" width="1" height="1" fill="#FF0000" />
<rect x="104" y="4" width="1" height="1" fill="#FF0000" />
<rect x="105" y="4" width="1" height="1" fill="#FF0000" />
<rect x="106" y="4" width="1" height="1" fill="#FF0000" />
<rect x="107" y="4" width="1" height="1" fill="#FF0000" />
<rect x="108" y="4" width="1" height="1" fill="#FF0000" />
<rect x="109" y="4" width="1" height="1" fill="#5FCDE4" />
<rect x="110" y="4" width="1" height="1" fill="#5FCDE4" />
<rect x="111" y="4" width="1" height="1" fill="#5FCDE4" />
<rect x="0" y="5" width="1" height="1" fill="#6ABE30" />
<rect x="1" y="5" width="1" height="1" fill="#6ABE30" />
<rect x="2" y="5" width="1" height="1" fill="#6ABE30" />
<rect x="3" y="5" width="1" height="1" fill="#6ABE30" />
<rect x="4" y="5" width="1" height="1" fill="#6ABE30" />
<rect x="5" y="5" width="1" height="1" fill="#6ABE30" />
<rect x="6" y="5" width="1" height="1" fill="#6ABE30" />
<rect x="7" y="5" width="1" height="1" fill="#6ABE30" />
<rect x="13" y="5" width="1" height="1" fill="#FF0000" />
<rect x="14" y="5" width="1" height="1" fill="#FF0000" />
<rect x="15" y="5" width="1" height="1" fill="#FF0000" />
<rect x="16" y="5" width="1" height="1" fill="#FF0000" />
<rect x="17" y="5" width="1" height="1" fill="#FF0000" />
<rect x="18" y="5" width="1" height="1" fill="#FF0000" />
<rect x="19" y="5" width="1" height="1" fill="#FF0000" />
<rect x="20" y="5" width="1" height="1" fill="#FF0000" />
<rect x="26" y="5" width="1" height="1" fill="#5FCDE4" />
<rect x="27" y="5" width="1" height="1" fill="#5FCDE4" />
<rect x="28" y="5" width="1" height="1" fill="#5FCDE4" />
<rect x="29" y="5" width="1" height="1" fill="#5FCDE4" />
<rect x="30" y="5" width="1" height="1" fill="#5FCDE4" />
<rect x="31" y="5" width="1" height="1" fill="#5FCDE4" />
<rect x="32" y="5" width="1" height="1" fill="#5FCDE4" />
<rect x="33" y="5" width="1" height="1" fill="#5FCDE4" />
<rect x="41" y="5" width="1" height="1" fill="#6ABE30" />
<rect x="42" y="5" width="1" height="1" fill="#6ABE30" />
<rect x="43" y="5" width="1" height="1" fill="#6ABE30" />
<rect x="44" y="5" width="1" height="1" fill="#6ABE30" />
<rect x="45" y="5" width="1" height="1" fill="#6ABE30" />
<rect x="46" y="5" width="1" height="1" fill="#6ABE30" />
<rect x="52" y="5" width="1" height="1" fill="#6ABE30" />
<rect x="53" y="5" width="1" height="1" fill="#6ABE30" />
<rect x="54" y="5" width="1" height="1" fill="#6ABE30" />
<rect x="55" y="5" width="1" height="1" fill="#6ABE30" />
<rect x="56" y="5" width="1" height="1" fill="#6ABE30" />
<rect x="57" y="5" width="1" height="1" fill="#6ABE30" />
<rect x="65" y="5" width="1" height="1" fill="#FF0000" />
<rect x="66" y="5" width="1" height="1" fill="#FF0000" />
<rect x="67" y="5" width="1" height="1" fill="#FF0000" />
<rect x="68" y="5" width="1" height="1" fill="#FF0000" />
<rect x="69" y="5" width="1" height="1" fill="#FF0000" />
<rect x="70" y="5" width="1" height="1" fill="#FF0000" />
<rect x="71" y="5" width="1" height="1" fill="#6ABE30" />
<rect x="72" y="5" width="1" height="1" fill="#6ABE30" />
<rect x="78" y="5" width="1" height="1" fill="#6ABE30" />
<rect x="79" y="5" width="1" height="1" fill="#6ABE30" />
<rect x="80" y="5" width="1" height="1" fill="#FF0000" />
<rect x="81" y="5" width="1" height="1" fill="#FF0000" />
<rect x="82" y="5" width="1" height="1" fill="#FF0000" />
<rect x="83" y="5" width="1" height="1" fill="#FF0000" />
<rect x="84" y="5" width="1" height="1" fill="#FF0000" />
<rect x="85" y="5" width="1" height="1" fill="#FF0000" />
<rect x="91" y="5" width="1" height="1" fill="#5FCDE4" />
<rect x="92" y="5" width="1" height="1" fill="#5FCDE4" />
<rect x="93" y="5" width="1" height="1" fill="#FF0000" />
<rect x="94" y="5" width="1" height="1" fill="#FF0000" />
<rect x="95" y="5" width="1" height="1" fill="#FF0000" />
<rect x="96" y="5" width="1" height="1" fill="#FF0000" />
<rect x="97" y="5" width="1" height="1" fill="#FF0000" />
<rect x="98" y="5" width="1" height="1" fill="#FF0000" />
<rect x="104" y="5" width="1" height="1" fill="#FF0000" />
<rect x="105" y="5" width="1" height="1" fill="#FF0000" />
<rect x="106" y="5" width="1" height="1" fill="#FF0000" />
<rect x="107" y="5" width="1" height="1" fill="#FF0000" />
<rect x="108" y="5" width="1" height="1" fill="#FF0000" />
<rect x="109" y="5" width="1" height="1" fill="#FF0000" />
<rect x="110" y="5" width="1" height="1" fill="#5FCDE4" />
<rect x="111" y="5" width="1" height="1" fill="#5FCDE4" />
<rect x="0" y="6" width="1" height="1" fill="#6ABE30" />
<rect x="1" y="6" width="1" height="1" fill="#6ABE30" />
<rect x="2" y="6" width="1" height="1" fill="#6ABE30" />
<rect x="3" y="6" width="1" height="1" fill="#6ABE30" />
<rect x="4" y="6" width="1" height="1" fill="#6ABE30" />
<rect x="5" y="6" width="1" height="1" fill="#6ABE30" />
<rect x="6" y="6" width="1" height="1" fill="#6ABE30" />
<rect x="7" y="6" width="1" height="1" fill="#6ABE30" />
<rect x="13" y="6" width="1" height="1" fill="#FF0000" />
<rect x="14" y="6" width="1" height="1" fill="#FF0000" />
<rect x="15" y="6" width="1" height="1" fill="#FF0000" />
<rect x="16" y="6" width="1" height="1" fill="#FF0000" />
<rect x="17" y="6" width="1" height="1" fill="#FF0000" />
<rect x="18" y="6" width="1" height="1" fill="#FF0000" />
<rect x="19" y="6" width="1" height="1" fill="#FF0000" />
<rect x="20" y="6" width="1" height="1" fill="#FF0000" />
<rect x="26" y="6" width="1" height="1" fill="#5FCDE4" />
<rect x="27" y="6" width="1" height="1" fill="#5FCDE4" />
<rect x="28" y="6" width="1" height="1" fill="#5FCDE4" />
<rect x="29" y="6" width="1" height="1" fill="#5FCDE4" />
<rect x="30" y="6" width="1" height="1" fill="#5FCDE4" />
<rect x="31" y="6" width="1" height="1" fill="#5FCDE4" />
<rect x="32" y="6" width="1" height="1" fill="#5FCDE4" />
<rect x="33" y="6" width="1" height="1" fill="#5FCDE4" />
<rect x="40" y="6" width="1" height="1" fill="#6ABE30" />
<rect x="41" y="6" width="1" height="1" fill="#6ABE30" />
<rect x="42" y="6" width="1" height="1" fill="#6ABE30" />
<rect x="43" y="6" width="1" height="1" fill="#6ABE30" />
<rect x="44" y="6" width="1" height="1" fill="#6ABE30" />
<rect x="45" y="6" width="1" height="1" fill="#6ABE30" />
<rect x="46" y="6" width="1" height="1" fill="#6ABE30" />
<rect x="52" y="6" width="1" height="1" fill="#6ABE30" />
<rect x="53" y="6" width="1" height="1" fill="#6ABE30" />
<rect x="54" y="6" width="1" height="1" fill="#6ABE30" />
<rect x="55" y="6" width="1" height="1" fill="#6ABE30" />
<rect x="56" y="6" width="1" height="1" fill="#6ABE30" />
<rect x="57" y="6" width="1" height="1" fill="#6ABE30" />
<rect x="58" y="6" width="1" height="1" fill="#6ABE30" />
<rect x="65" y="6" width="1" height="1" fill="#FF0000" />
<rect x="66" y="6" width="1" height="1" fill="#FF0000" />
<rect x="67" y="6" width="1" height="1" fill="#FF0000" />
<rect x="68" y="6" width="1" height="1" fill="#FF0000" />
<rect x="69" y="6" width="1" height="1" fill="#FF0000" />
<rect x="70" y="6" width="1" height="1" fill="#FF0000" />
<rect x="71" y="6" width="1" height="1" fill="#FF0000" />
<rect x="72" y="6" width="1" height="1" fill="#6ABE30" />
<rect x="78" y="6" width="1" height="1" fill="#6ABE30" />
<rect x="79" y="6" width="1" height="1" fill="#FF0000" />
<rect x="80" y="6" width="1" height="1" fill="#FF0000" />
<rect x="81" y="6" width="1" height="1" fill="#FF0000" />
<rect x="82" y="6" width="1" height="1" fill="#FF0000" />
<rect x="83" y="6" width="1" height="1" fill="#FF0000" />
<rect x="84" y="6" width="1" height="1" fill="#FF0000" />
<rect x="85" y="6" width="1" height="1" fill="#FF0000" />
<rect x="91" y="6" width="1" height="1" fill="#5FCDE4" />
<rect x="92" y="6" width="1" height="1" fill="#FF0000" />
<rect x="93" y="6" width="1" height="1" fill="#FF0000" />
<rect x="94" y="6" width="1" height="1" fill="#FF0000" />
<rect x="95" y="6" width="1" height="1" fill="#FF0000" />
<rect x="96" y="6" width="1" height="1" fill="#FF0000" />
<rect x="97" y="6" width="1" height="1" fill="#FF0000" />
<rect x="98" y="6" width="1" height="1" fill="#FF0000" />
<rect x="104" y="6" width="1" height="1" fill="#FF0000" />
<rect x="105" y="6" width="1" height="1" fill="#FF0000" />
<rect x="106" y="6" width="1" height="1" fill="#FF0000" />
<rect x="107" y="6" width="1" height="1" fill="#FF0000" />
<rect x="108" y="6" width="1" height="1" fill="#FF0000" />
<rect x="109" y="6" width="1" height="1" fill="#FF0000" />
<rect x="110" y="6" width="1" height="1" fill="#FF0000" />
<rect x="111" y="6" width="1" height="1" fill="#5FCDE4" />
<rect x="0" y="7" width="1" height="1" fill="#6ABE30" />
<rect x="1" y="7" width="1" height="1" fill="#6ABE30" />
<rect x="2" y="7" width="1" height="1" fill="#6ABE30" />
<rect x="3" y="7" width="1" height="1" fill="#6ABE30" />
<rect x="4" y="7" width="1" height="1" fill="#6ABE30" />
<rect x="5" y="7" width="1" height="1" fill="#6ABE30" />
<rect x="6" y="7" width="1" height="1" fill="#6ABE30" />
<rect x="7" y="7" width="1" height="1" fill="#6ABE30" />
<rect x="13" y="7" width="1" height="1" fill="#FF0000" />
<rect x="14" y="7" width="1" height="1" fill="#FF0000" />
<rect x="15" y="7" width="1" height="1" fill="#FF0000" />
<rect x="16" y="7" width="1" height="1" fill="#FF0000" />
<rect x="17" y="7" width="1" height="1" fill="#FF0000" />
<rect x="18" y="7" width="1" height="1" fill="#FF0000" />
<rect x="19" y="7" width="1" height="1" fill="#FF0000" />
<rect x="20" y="7" width="1" height="1" fill="#FF0000" />
<rect x="26" y="7" width="1" height="1" fill="#5FCDE4" />
<rect x="27" y="7" width="1" height="1" fill="#5FCDE4" />
<rect x="28" y="7" width="1" height="1" fill="#5FCDE4" />
<rect x="29" y="7" width="1" height="1" fill="#5FCDE4" />
<rect x="30" y="7" width="1" height="1" fill="#5FCDE4" />
<rect x="31" y="7" width="1" height="1" fill="#5FCDE4" />
<rect x="32" y="7" width="1" height="1" fill="#5FCDE4" />
<rect x="33" y="7" width="1" height="1" fill="#5FCDE4" />
<rect x="39" y="7" width="1" height="1" fill="#6ABE30" />
<rect x="40" y="7" width="1" height="1" fill="#6ABE30" />
<rect x="41" y="7" width="1" height="1" fill="#6ABE30" />
<rect x="42" y="7" width="1" height="1" fill="#6ABE30" />
<rect x="43" y="7" width="1" height="1" fill="#6ABE30" />
<rect x="44" y="7" width="1" height="1" fill="#6ABE30" />
<rect x="45" y="7" width="1" height="1" fill="#6ABE30" />
<rect x="46" y="7" width="1" height="1" fill="#6ABE30" />
<rect x="52" y="7" width="1" height="1" fill="#6ABE30" />
<rect x="53" y="7" width="1" height="1" fill="#6ABE30" />
<rect x="54" y="7" width="1" height="1" fill="#6ABE30" />
<rect x="55" y="7" width="1" height="1" fill="#6ABE30" />
<rect x="56" y="7" width="1" height="1" fill="#6ABE30" />
<rect x="57" y="7" width="1" height="1" fill="#6ABE30" />
<rect x="58" y="7" width="1" height="1" fill="#6ABE30" />
<rect x="59" y="7" width="1" height="1" fill="#6ABE30" />
<rect x="65" y="7" width="1" height="1" fill="#FF0000" />
<rect x="66" y="7" width="1" height="1" fill="#FF0000" />
<rect x="67" y="7" width="1" height="1" fill="#FF0000" />
<rect x="68" y="7" width="1" height="1" fill="#FF0000" />
<rect x="69" y="7" width="1" height="1" fill="#FF0000" />
<rect x="70" y="7" width="1" height="1" fill="#FF0000" />
<rect x="71" y="7" width="1" height="1" fill="#FF0000" />
<rect x="72" y="7" width="1" height="1" fill="#FF0000" />
<rect x="78" y="7" width="1" height="1" fill="#FF0000" />
<rect x="79" y="7" width="1" height="1" fill="#FF0000" />
<rect x="80" y="7" width="1" height="1" fill="#FF0000" />
<rect x="81" y="7" width="1" height="1" fill="#FF0000" />
<rect x="82" y="7" width="1" height="1" fill="#FF0000" />
<rect x="83" y="7" width="1" height="1" fill="#FF0000" />
<rect x="84" y="7" width="1" height="1" fill="#FF0000" />
<rect x="85" y="7" width="1" height="1" fill="#FF0000" />
<rect x="91" y="7" width="1" height="1" fill="#FF0000" />
<rect x="92" y="7" width="1" height="1" fill="#FF0000" />
<rect x="93" y="7" width="1" height="1" fill="#FF0000" />
<rect x="94" y="7" width="1" height="1" fill="#FF0000" />
<rect x="95" y="7" width="1" height="1" fill="#FF0000" />
<rect x="96" y="7" width="1" height="1" fill="#FF0000" />
<rect x="97" y="7" width="1" height="1" fill="#FF0000" />
<rect x="98" y="7" width="1" height="1" fill="#FF0000" />
<rect x="104" y="7" width="1" height="1" fill="#FF0000" />
<rect x="105" y="7" width="1" height="1" fill="#FF0000" />
<rect x="106" y="7" width="1" height="1" fill="#FF0000" />
<rect x="107" y="7" width="1" height="1" fill="#FF0000" />
<rect x="108" y="7" width="1" height="1" fill="#FF0000" />
<rect x="109" y="7" width="1" height="1" fill="#FF0000" />
<rect x="110" y="7" width="1" height="1" fill="#FF0000" />
<rect x="111" y="7" width="1" height="1" fill="#FF0000" />
</svg>